<!DOCTYPE svg PUBLIC "-//W3C//DTD SVG 1.1//EN" "http://www.w3.org/Graphics/SVG/1.1/DTD/svg11.dtd">
<!-- Uploaded to: SVG Repo, www.svgrepo.com, Transformed by: SVG Repo Mixer Tools -->
<svg fill="#faf9f9" height="800px" width="800px" version="1.1" id="Icons" xmlns="http://www.w3.org/2000/svg" xmlns:xlink="http://www.w3.org/1999/xlink" viewBox="0 0 32.00 32.00" xml:space="preserve" stroke="#faf9f9" stroke-width="1.504" transform="matrix(1, 0, 0, 1, 0, 0)rotate(0)">
<g id="SVGRepo_bgCarrier" stroke-width="0"/>
<g id="SVGRepo_tracerCarrier" stroke-linecap="round" stroke-linejoin="round" stroke="#CCCCCC" stroke-width="0.256"/>
<g id="SVGRepo_iconCarrier"> <g> <path d="M28.7,8.9l-5.7-5.7c-1.1-1.1-3.1-1.1-4.2,0l-7.1,7.1c0,0,0,0,0,0s0,0,0,0l-7.5,7.5c-1.2,1.2-1.2,3.1,0,4.2l3.8,3.8 c0.2,0.2,0.4,0.3,0.7,0.3h6.6c0.3,0,0.5-0.1,0.7-0.3l12.7-12.7c0,0,0,0,0,0C29.9,12,29.9,10.1,28.7,8.9z M14.9,24.1H9.2l-3.5-3.5 c-0.4-0.4-0.4-1,0-1.4l6.8-6.8l7.1,7.1L14.9,24.1z"/> <path d="M27,28H5c-0.6,0-1,0.4-1,1s0.4,1,1,1h22c0.6,0,1-0.4,1-1S27.6,28,27,28z"/> </g> </g>
</svg>